<?xml version="1.0" encoding="UTF-8"?>
<!DOCTYPE svg PUBLIC "-//W3C//DTD SVG 1.1//EN" "http://www.w3.org/Graphics/SVG/1.1/DTD/svg11.dtd">
<svg xmlns="http://www.w3.org/2000/svg" version="1.1" width="30px" height="30px" style="shape-rendering:geometricPrecision; text-rendering:geometricPrecision; image-rendering:optimizeQuality; fill-rule:evenodd; clip-rule:evenodd" xmlns:xlink="http://www.w3.org/1999/xlink">
<g><path style="opacity:0.906" fill="#5e38f8" d="M 10.5,-0.5 C 13.1667,-0.5 15.8333,-0.5 18.5,-0.5C 23.8592,1.52579 27.5258,5.19245 29.5,10.5C 29.5,13.1667 29.5,15.8333 29.5,18.5C 27.4742,23.8592 23.8075,27.5258 18.5,29.5C 15.8333,29.5 13.1667,29.5 10.5,29.5C 5.14084,27.4742 1.47418,23.8075 -0.5,18.5C -0.5,15.8333 -0.5,13.1667 -0.5,10.5C 1.52579,5.14084 5.19245,1.47418 10.5,-0.5 Z M 12.5,4.5 C 15.0728,4.14849 17.4062,4.64849 19.5,6C 17.1108,7.09611 14.6108,7.92944 12,8.5C 10.2731,11.4442 10.7731,14.1109 13.5,16.5C 11.6707,17.2824 10.1707,16.6157 9,14.5C 7.75625,10.191 8.92292,6.85771 12.5,4.5 Z M 15.5,10.5 C 21.5921,14.7351 21.9254,19.2351 16.5,24C 14.5,24.6667 12.5,24.6667 10.5,24C 9.16667,23.3333 9.16667,22.6667 10.5,22C 18.1471,21.6483 19.4804,18.4816 14.5,12.5C 14.8627,11.8165 15.1961,11.1499 15.5,10.5 Z"/></g>
</svg>
